<svg version="1" xmlns="http://www.w3.org/2000/svg" width="933.333" height="933.333" viewBox="0 0 700.000000 700.000000"><path d="M344.7 64.6c-.1.1-4.7.4-10.2.8-12.4.8-27.2 2.9-42 6-38.9 8.1-88.1 32-117.5 57.2-10.6 9.1-14.6 12.8-22.5 20.8-7.4 7.4-19 20.8-25.8 29.6-2.8 3.6-11.8 17-15.6 23.4-5.6 9.2-20.1 38.2-20.1 40.3 0 .3-.6 1.9-1.4 3.6-2.8 6.5-9.9 29-10.9 34.7-.3 1.4-1 4.3-1.6 6.5-1.3 4.9-1.9 8.4-2 11-.1 1.8-.9 2-6.2 2.2-10.4.4-21 2.2-31.2 5.4-9.7 3.1-35.5 15.5-36 17.3-.1.5 1.4 1.1 3.3 1.4 1.9.2 10.9 1.9 20 3.8s17.4 3.7 18.5 3.9c1.1.3 7.4 2 14 3.9 6.6 1.8 12.3 3.1 12.7 2.7.3-.3.9-5.5 1.2-11.4.3-6 .8-11.2 1-11.5.2-.4.7-3.6 1-7.2.4-3.5 1.1-6.9 1.6-7.5 2.1-2.5 26.3 1.1 42.8 6.5 26.5 8.5 61.3 29.4 81.9 49.3 2.4 2.2 4.4 3.9 4.7 3.6.2-.2.7-5.5 1-11.8.4-6.3.9-11.7 1-12 .2-.3.7-2.9 1-5.6 2.5-18.6 11.6-42.5 22.6-59.1 5.3-8 5.1-7.7 11.2-14.8 7.3-8.3 9.1-10.1 15.9-15.8 23.7-19.9 51.2-30.7 76.9-30.3 36.4.7 65.9 11 91 32 12.6 10.5 21.6 21.6 32.2 39.8 8.4 14.2 21.1 25.5 38.8 34.3 8.1 4 20.6 8.7 26 9.8 1.4.3 3.6.8 5 1.1 1.4.3 6.8.8 12 1 11.1.5 18-1 28.2-6.1 8.3-4.2 10.8-4.4 10.8-.9 0 7.7-14.5 25.7-28.4 35.4-6.9 4.8-19.3 9.8-26.8 10.8-13.8 1.9-29.7-.3-45.6-6.3-3.6-1.3-6.6-2.3-6.7-2.2 0 .2-1.3 5.1-2.8 11.1-8.4 33.8-32.4 61.7-63.2 73.2-15 5.7-34.7 7.2-50.4 4-16.3-3.4-29.1-9.4-38.7-18.2-13.9-12.7-25.6-37.1-28.4-58.8-2.1-16.3.7-33.5 7.1-43.6 5.6-8.8 17.4-17.7 28.3-21.4 23-7.7 45.1-.4 54.1 17.9 3.5 7.2 3.9 9 4 18.1 0 6.8-.4 8.8-2.8 13.5-3.2 6.2-6.4 10-12.2 14.6-5.3 4.2-14.9 9-20.8 10.6-7.9 2-8.3 6.4-1.4 12.5 11.6 10.2 35.7 11.4 52.9 2.7 7.6-3.8 16.8-13.7 20.9-22.4 6.3-13 7.3-17.9 7.3-33.5.1-13.2-.1-14.5-3.1-22.8-12.4-35-45.5-58.9-81.4-58.9-23.3 0-43.4 9.2-62.4 28.7-15 15.3-24 30.3-29.2 49-2.4 8.7-2.4 34.4 0 44 4.1 15.9 8 26.4 15.9 42 8.8 17.6 16.6 29.9 51.3 80.8 11.6 17.1 10.7 15.7 20.8 32.6 17.8 29.9 33.5 67.4 39.1 93.7.6 2.7 1.1 3.1 3.9 2.9 5.3-.4 16.2-1.7 16.7-2 .3-.2 2.8-.6 5.5-.9 15.7-2.1 43.8-10.1 62-17.7 81.8-34 143.5-104.2 166.1-189.1 3.5-13.3 6.8-30.5 7.9-41.8.4-3.6.9-8.3 1.1-10.5.7-5.7.6-36.1-.1-43.1-1.5-15.2-2.8-24.7-4.6-33.4-1.1-5.2-2.2-10.6-2.5-12-.8-3.7-6.4-22.9-7.9-26.9-4.6-12.3-7.3-18.8-11.7-28.1-5-10.7-15.8-29.9-18.8-33.5-.9-1.1-2-2.7-2.3-3.5-.7-2-13.9-19.2-20.7-27.1-11.6-13.3-28-28.8-42-39.4-3.6-2.8-6.7-5.2-7-5.5-.7-.7-12-8.3-14.1-9.5-1-.6-5.8-3.3-10.6-6.2-35.2-20.7-77.6-33.7-119.8-36.8-8.1-.6-31.3-1.3-31.8-.9z"/><path d="M70.7 340.8c-.8 1.6.5 35.1 1.7 42.2.2 1.4.7 4.7 1.1 7.5 6.8 50.7 30.1 101.8 66.1 144.6 6.7 8 29.9 30 39.6 37.6 32.3 25.3 68.9 43.1 107.8 52.4 6.9 1.7 13.3 3.3 14.3 3.5 1.4.5 1.7.1 1.3-2.3-.6-3.4-1.9-12.2-2.1-14.3-1.8-15-9.2-45.7-15.1-62.2-6.2-17.6-18.7-45.3-26.2-58.3-19.8-34.2-44.4-63.9-69.2-83.7-4.1-3.3-8.4-6.7-9.5-7.6-11.6-9.5-45.2-31.7-61-40.3-14.1-7.6-47.9-20.8-48.8-19.1z"/></svg>