<?xml version="1.0" encoding="UTF-8"?>
<svg width="37px" height="36px" viewBox="0 0 37 36" version="1.1" xmlns="http://www.w3.org/2000/svg" xmlns:xlink="http://www.w3.org/1999/xlink">
    <!-- Generator: Sketch 52 (66869) - http://www.bohemiancoding.com/sketch -->
    <title>google-invisible-recaptcha-for-magento-2</title>
    <desc>Created with Sketch.</desc>
    <g id="Page-1" stroke="none" stroke-width="1" fill="none" fill-rule="evenodd">
        <g id="google-invisible-recaptcha-for-magento-2" fill="#000000">
            <path d="M18,9.1714847 L18,0.00545880862 C18.1597211,0.00154961008 18.319733,-0.00026542547 18.48,3.12701117e-05 C23.9292066,-0.00923642021 29.0958644,2.42364293 32.56,6.63003127 L36.63,2.60003127 L36.63,17.2000313 C36.65,17.4600313 36.65,17.7200313 36.65,17.9700313 L36.65,17.9800313 C33.87,17.9300313 27.11,17.9500313 21.13,17.9800313 L25.85,13.2800313 C24.3570559,10.9646091 21.8669256,9.48089101 19.12,9.27003127 C18.97,9.20003127 18.75,9.17003127 18.47,9.17003127 C18.3129913,9.16596213 18.1562632,9.16646637 18,9.1714847 Z" id="Combined-Shape"></path>
            <path d="M9.24575258,18 L2.51930085e-05,18 C0.00908614751,12.5886301 2.46188859,7.46250256 6.68563668,4.06 L2.60563668,0.02 L17.3356367,0.02 C17.5956367,3.55271368e-14 17.8556367,3.55271368e-14 18.1156367,0 C18.0756367,2.76 18.0856367,9.46 18.1156367,15.4 L13.3856367,10.71 C11.06179,12.1758489 9.56471642,14.6512082 9.34563668,17.39 C9.27815937,17.5345942 9.24785093,17.7349418 9.24575404,18 Z M7.58270617,32 L7.18563668,32.39 C7.01567633,32.2627078 6.84833552,32.1326795 6.68365766,32 L7.58270617,32 Z" id="Combined-Shape" opacity="0.75"></path>
            <path d="M0,18.01 C0,18.26 0,18.52 0.02,18.78 L0.02,33.38 L4.09,29.35 C7.55413561,33.5563883 12.7207934,35.9892677 18.17,35.98 C23.8442299,35.9905045 29.1987002,33.3539455 32.65,28.85 L25.98,22.15 C25.327103,23.3529395 24.4026098,24.3870023 23.28,25.17 C21.8152166,26.279291 20.0168045,26.8576039 18.18,26.81 C17.9,26.81 17.68,26.78 17.53,26.71 C14.7830744,26.4991403 12.2929441,25.0154222 10.8,22.7 L15.53,18 C9.54,18.03 2.78,18.05 0,18" id="Path" opacity="0.5"></path>
        </g>
    </g>
</svg>